<?xml version="1.0" encoding="UTF-8"?>
<svg id="Layer_1" data-name="Layer 1" xmlns="http://www.w3.org/2000/svg" viewBox="0 0 152.21 77.36">
  <defs>
    <style>
      .cls-1 {
        fill: #f4b41b;
      }

      .cls-2 {
        fill: #009e57;
      }

      .cls-3 {
        fill: #dd4536;
      }

      .cls-4 {
        fill: #231f20;
      }

      .cls-5 {
        fill: #547dbf;
      }
    </style>
  </defs>
  <path class="cls-4" d="m23.17,39.19V8.78h4.25v4.9l-.65-.37c.16-.82.63-1.6,1.39-2.35.76-.75,1.69-1.36,2.8-1.84,1.1-.48,2.24-.71,3.41-.71,1.93,0,3.65.48,5.14,1.43,1.5.95,2.68,2.26,3.55,3.92.87,1.66,1.31,3.57,1.31,5.72s-.43,4.02-1.29,5.69c-.86,1.67-2.03,2.99-3.53,3.96-1.5.97-3.18,1.45-5.06,1.45-1.25,0-2.46-.25-3.63-.76-1.17-.5-2.16-1.15-2.98-1.94-.82-.79-1.32-1.61-1.51-2.45l1.06-.57v14.33h-4.25Zm10.61-12.49c1.25,0,2.37-.31,3.35-.94.98-.63,1.76-1.48,2.33-2.57.57-1.09.86-2.33.86-3.71s-.28-2.62-.84-3.69-1.33-1.93-2.31-2.55c-.98-.63-2.11-.94-3.39-.94s-2.41.31-3.39.92-1.76,1.46-2.33,2.55-.86,2.33-.86,3.72.29,2.63.86,3.71c.57,1.09,1.35,1.95,2.33,2.57s2.11.94,3.39.94Z"/>
  <path class="cls-4" d="m49.62,30.21V8.78h4.2v21.43h-4.2Zm-4.39-21.47v-4.54h4.54v4.54h-4.54Z"/>
  <path class="cls-4" d="m74.52,30.21l-6.94-9.02-.61-.78-9.02-11.64h5.31l6.82,8.9.69.9,8.9,11.63h-5.14Zm-16.53,0l8.45-11.02,2.49,2.98-5.96,8.04h-4.98Zm13.02-10.37l-2.33-2.94,5.27-8.12h4.98l-7.92,11.06Z"/>
  <path class="cls-4" d="m91.99,30.62c-2.2,0-4.16-.47-5.86-1.41s-3.04-2.22-4-3.86c-.97-1.63-1.45-3.51-1.45-5.63,0-1.69.27-3.22.82-4.61.54-1.39,1.3-2.59,2.27-3.61.97-1.02,2.12-1.81,3.47-2.37,1.35-.56,2.81-.84,4.39-.84,1.39,0,2.68.27,3.88.8,1.2.53,2.24,1.26,3.12,2.18.88.93,1.56,2.02,2.04,3.29.48,1.26.7,2.65.67,4.14l-.04,1.8h-17.51l-.94-3.35h14.82l-.61.69v-.98c-.08-.9-.38-1.7-.9-2.41-.52-.71-1.17-1.26-1.96-1.67-.79-.41-1.65-.61-2.57-.61-1.47,0-2.71.28-3.72.84s-1.77,1.37-2.29,2.45-.78,2.4-.78,3.98.31,2.8.94,3.9c.63,1.1,1.51,1.95,2.65,2.55,1.14.6,2.46.9,3.96.9,1.06,0,2.05-.18,2.96-.53.91-.35,1.9-.99,2.96-1.92l2.12,2.98c-.65.65-1.45,1.22-2.39,1.71s-1.93.88-2.98,1.16-2.08.43-3.08.43Z"/>
  <path class="cls-4" d="m106,30.21V0h4.2v30.21h-4.2Z"/>
  <path class="cls-4" d="m113.85,14.3v-1.8h6.01v1.8h-6.01Zm1.96,7.65v-11.86h1.85v11.86h-1.85Z"/>
  <path class="cls-4" d="m125.71,22.13c-.92,0-1.75-.21-2.48-.64-.73-.43-1.3-1.01-1.72-1.75-.42-.74-.63-1.58-.63-2.53s.21-1.79.63-2.53c.42-.74.99-1.32,1.72-1.75s1.55-.64,2.48-.64,1.73.21,2.46.64,1.3,1.01,1.72,1.75c.42.74.63,1.58.63,2.53s-.21,1.79-.63,2.53c-.42.74-.99,1.32-1.72,1.75-.73.43-1.54.64-2.46.64Zm0-1.69c.56,0,1.07-.14,1.51-.42.44-.28.79-.67,1.04-1.15.25-.49.37-1.04.36-1.65.01-.62-.11-1.18-.36-1.67s-.6-.87-1.04-1.14c-.44-.28-.95-.41-1.51-.41s-1.07.14-1.52.42c-.45.28-.8.67-1.05,1.15-.25.49-.37,1.03-.36,1.65-.01.61.11,1.16.36,1.65.25.49.6.87,1.05,1.15.45.28.96.42,1.52.42Z"/>
  <path class="cls-4" d="m41.7,60.56c-1.66,0-3.18-.3-4.56-.89s-2.59-1.43-3.61-2.54-1.81-2.4-2.37-3.9c-.56-1.5-.83-3.14-.83-4.94s.3-3.29.9-4.75,1.43-2.75,2.5-3.86c1.07-1.11,2.3-1.97,3.71-2.59,1.41-.61,2.93-.92,4.56-.92,1.16,0,2.29.18,3.39.53,1.1.35,2.1.84,3,1.46.9.62,1.63,1.33,2.2,2.13l-2.45,2.55c-.66-.66-1.32-1.21-1.99-1.65-.67-.44-1.35-.78-2.04-1-.69-.23-1.39-.34-2.09-.34-1.11,0-2.15.21-3.11.63-.96.42-1.8,1-2.52,1.75s-1.28,1.64-1.69,2.67-.61,2.16-.61,3.39c0,1.29.2,2.47.6,3.52.4,1.06.96,1.96,1.68,2.71.73.75,1.59,1.32,2.6,1.72,1.01.4,2.13.6,3.35.6.75,0,1.49-.1,2.21-.31.73-.2,1.41-.5,2.04-.89.63-.39,1.21-.84,1.74-1.36l1.84,3c-.52.61-1.23,1.17-2.13,1.67-.9.5-1.89.89-3,1.17s-2.21.43-3.32.43Z"/>
  <path class="cls-4" d="m65.12,60.56c-1.68,0-3.23-.31-4.65-.92-1.42-.61-2.66-1.47-3.71-2.57-1.06-1.1-1.87-2.39-2.45-3.88-.58-1.49-.87-3.11-.87-4.88s.29-3.4.87-4.88c.58-1.49,1.4-2.78,2.45-3.88,1.05-1.1,2.29-1.96,3.71-2.57,1.42-.61,2.97-.92,4.65-.92s3.23.31,4.65.92c1.42.61,2.65,1.48,3.71,2.59s1.87,2.41,2.45,3.9c.58,1.49.87,3.1.87,4.85s-.29,3.36-.87,4.85-1.4,2.79-2.45,3.9-2.29,1.97-3.71,2.59c-1.42.61-2.97.92-4.65.92Zm0-3.57c1.16,0,2.22-.22,3.18-.65.96-.43,1.8-1.04,2.5-1.82s1.25-1.7,1.65-2.76c.4-1.05.6-2.21.6-3.45s-.2-2.4-.6-3.46-.95-1.97-1.65-2.76-1.54-1.39-2.5-1.82c-.96-.43-2.03-.65-3.18-.65s-2.22.22-3.18.65c-.96.43-1.8,1.03-2.52,1.8-.71.77-1.26,1.69-1.65,2.74s-.58,2.22-.58,3.49.19,2.41.58,3.47.94,1.99,1.65,2.76,1.55,1.37,2.52,1.8c.96.43,2.02.65,3.18.65Z"/>
  <path class="cls-4" d="m81.76,60.22v-23.83h9.33c1.7,0,3.24.28,4.61.85s2.55,1.38,3.52,2.45c.98,1.07,1.72,2.33,2.25,3.78.52,1.45.78,3.06.78,4.83s-.26,3.39-.78,4.85c-.52,1.46-1.26,2.72-2.23,3.78-.96,1.05-2.14,1.87-3.52,2.43-1.38.57-2.93.85-4.63.85h-9.33Zm3.68-3.17l-.1-.37h5.58c1.2,0,2.28-.19,3.22-.58.94-.39,1.74-.94,2.38-1.65.65-.72,1.14-1.59,1.48-2.64.34-1.04.51-2.21.51-3.51s-.17-2.46-.51-3.49c-.34-1.03-.84-1.91-1.5-2.64-.66-.73-1.45-1.28-2.38-1.67s-2-.58-3.2-.58h-5.68l.2-.31v17.43Z"/>
  <path class="cls-4" d="m107.22,60.22v-23.83h15.01v3.54h-11.33v16.75h11.33v3.54h-15.01Zm1.67-10.45v-3.54h11.47v3.54h-11.47Z"/>
  <path class="cls-4" d="m79.19,77.36c-.68,0-1.32-.09-1.9-.27-.58-.18-1.11-.45-1.58-.82-.47-.37-.9-.82-1.27-1.36l1.33-1.53c.59.84,1.15,1.42,1.69,1.75.54.32,1.18.49,1.93.49.46,0,.87-.07,1.24-.22.37-.14.67-.34.88-.59.22-.25.32-.54.32-.86,0-.22-.04-.42-.11-.61-.07-.19-.18-.37-.33-.52-.15-.16-.34-.3-.58-.43-.23-.13-.51-.25-.82-.35-.31-.1-.67-.19-1.08-.26-.65-.13-1.21-.31-1.69-.52s-.88-.49-1.21-.81c-.32-.32-.56-.69-.72-1.11-.16-.41-.23-.88-.23-1.4s.11-.97.33-1.4c.22-.43.53-.81.92-1.12.39-.32.85-.56,1.38-.74.53-.17,1.1-.26,1.71-.26.65,0,1.24.08,1.78.25s1.02.42,1.44.75.77.73,1.04,1.21l-1.37,1.35c-.24-.4-.51-.73-.81-1-.3-.27-.63-.47-.99-.61-.36-.14-.74-.21-1.15-.21-.47,0-.88.07-1.22.22s-.62.34-.82.6c-.2.26-.3.56-.3.91,0,.25.05.48.14.69.1.21.24.4.44.56.2.16.46.31.8.43s.74.24,1.21.33c.66.14,1.25.33,1.76.55.52.22.95.48,1.31.78.36.3.63.64.82,1.01.19.37.28.77.28,1.21,0,.8-.19,1.5-.56,2.09-.37.59-.9,1.04-1.58,1.36s-1.5.48-2.45.48Z"/>
  <path class="cls-4" d="m88.93,77.18v-10.73h-3.53v-1.87h9.11v1.87h-3.64v10.73h-1.94Z"/>
  <path class="cls-4" d="m101.8,77.29c-.97,0-1.84-.21-2.61-.64-.77-.43-1.37-1.01-1.81-1.76-.44-.75-.66-1.6-.66-2.55v-7.78h1.94v7.61c0,.61.14,1.16.43,1.65s.67.87,1.14,1.16c.47.29.99.43,1.56.43.6,0,1.14-.14,1.63-.43.49-.29.87-.68,1.16-1.16.29-.49.43-1.04.43-1.65v-7.61h1.85v7.78c0,.95-.22,1.8-.66,2.55-.44.75-1.04,1.34-1.81,1.76-.77.43-1.64.64-2.61.64Z"/>
  <path class="cls-4" d="m110.22,77.18v-12.6h4.93c.9,0,1.71.15,2.44.45s1.35.73,1.86,1.3c.52.56.91,1.23,1.19,2,.28.77.41,1.62.41,2.56s-.14,1.79-.41,2.56c-.28.77-.67,1.44-1.18,2-.51.56-1.13.99-1.86,1.29-.73.3-1.55.45-2.45.45h-4.93Zm1.94-1.67l-.05-.2h2.95c.64,0,1.2-.1,1.7-.31.5-.2.92-.49,1.26-.87.34-.38.6-.84.78-1.4.18-.55.27-1.17.27-1.85s-.09-1.3-.27-1.85c-.18-.55-.44-1.01-.79-1.4-.35-.38-.77-.68-1.26-.88s-1.06-.31-1.69-.31h-3.01l.11-.16v9.22Z"/>
  <path class="cls-4" d="m122.95,77.18v-1.8h2.03v-9h-2.03v-1.8h6.01v1.8h-2.03v9h2.03v1.8h-6.01Z"/>
  <path class="cls-4" d="m137.03,77.36c-.89,0-1.71-.16-2.46-.49-.75-.32-1.4-.78-1.96-1.36-.56-.58-.99-1.27-1.3-2.05-.31-.79-.46-1.65-.46-2.58s.15-1.8.46-2.58c.31-.79.74-1.47,1.3-2.05.56-.58,1.21-1.04,1.96-1.36.75-.32,1.57-.49,2.46-.49s1.71.16,2.46.49c.75.32,1.4.78,1.96,1.37s.99,1.27,1.3,2.06c.31.79.46,1.64.46,2.57s-.15,1.78-.46,2.56-.74,1.47-1.3,2.06-1.21,1.04-1.96,1.37c-.75.32-1.57.49-2.46.49Zm0-1.89c.61,0,1.17-.11,1.68-.34.51-.23.95-.55,1.32-.96s.66-.9.87-1.46c.21-.56.31-1.17.31-1.83s-.1-1.27-.31-1.83-.5-1.04-.87-1.46-.81-.73-1.32-.96c-.51-.23-1.07-.34-1.68-.34s-1.17.11-1.68.34c-.51.23-.95.55-1.33.95-.38.41-.67.89-.87,1.45s-.31,1.17-.31,1.85.1,1.27.31,1.84.5,1.05.87,1.46.82.73,1.33.95c.51.23,1.07.34,1.68.34Z"/>
  <g>
    <rect class="cls-4" x="9.15" y="13.52" width="9.15" height="9.15"/>
    <rect class="cls-5" x="9.15" y="22.67" width="9.15" height="9.15"/>
    <rect class="cls-2" y="31.82" width="9.15" height="9.15"/>
    <rect class="cls-3" x="9.15" y="40.97" width="9.15" height="9.15"/>
    <rect class="cls-1" x="9.15" y="50.11" width="9.15" height="9.15"/>
  </g>
  <g>
    <rect class="cls-4" x="133.92" y="49.63" width="9.15" height="9.15" transform="translate(276.99 108.4) rotate(180)"/>
    <rect class="cls-5" x="133.92" y="40.48" width="9.15" height="9.15" transform="translate(276.99 90.11) rotate(180)"/>
    <rect class="cls-2" x="143.07" y="31.33" width="9.15" height="9.15" transform="translate(295.28 71.81) rotate(180)"/>
    <rect class="cls-3" x="133.92" y="22.19" width="9.15" height="9.15" transform="translate(276.99 53.52) rotate(180)"/>
    <rect class="cls-1" x="133.92" y="13.04" width="9.15" height="9.15" transform="translate(276.99 35.23) rotate(180)"/>
  </g>
</svg>